{"accessors":[{"bufferView":2,"componentType":5126,"count":2510,"max":[1030,464.6049499511719,300.1534423828125],"min":[-1030,-464.6049499511719,-300.1534423828125],"type":"VEC3","byteOffset":0},{"bufferView":2,"byteOffset":30120,"componentType":5126,"count":2510,"max":[1,1,1],"min":[-1,-1,-1],"type":"VEC3"},{"bufferView":3,"componentType":5126,"count":2510,"max":[1,0.8751392960548401,1,1],"min":[-1,-0.8752248287200928,-1,-1],"type":"VEC4","byteOffset":0},{"bufferView":1,"componentType":5126,"count":2510,"max":[0.9986875057220459,0.4815739095211029],"min":[0.0006351087358780205,0.0006068553775548935],"type":"VEC2","byteOffset":0},{"bufferView":0,"componentType":5125,"count":13824,"max":[2509],"min":[0],"type":"SCALAR","byteOffset":0},{"bufferView":2,"byteOffset":60240,"componentType":5126,"count":843,"max":[830,460,100],"min":[-830,-460,-100],"type":"VEC3"},{"bufferView":2,"byteOffset":70356,"componentType":5126,"count":843,"max":[1,1,1],"min":[-1,-1,-0.9995664358139038],"type":"VEC3"},{"bufferView":3,"byteOffset":40160,"componentType":5126,"count":843,"max":[1,1,0.6851747035980225,1],"min":[-1,-1,-0.6851747632026672,1],"type":"VEC4"},{"bufferView":1,"byteOffset":20080,"componentType":5126,"count":843,"max":[0.911865234375,0.7271169424057007],"min":[0.08813473582267761,0.2728830873966217],"type":"VEC2"},{"bufferView":0,"byteOffset":55296,"componentType":5125,"count":4032,"max":[842],"min":[0],"type":"SCALAR"},{"bufferView":2,"byteOffset":80472,"componentType":5126,"count":806,"max":[830,40.0000114440918,240],"min":[-830,-40.00000762939453,-240],"type":"VEC3"},{"bufferView":2,"byteOffset":90144,"componentType":5126,"count":806,"max":[1,1,1],"min":[-1,-1,-1],"type":"VEC3"},{"bufferView":3,"byteOffset":53648,"componentType":5126,"count":806,"max":[1,0.5429711937904358,1,1],"min":[-1,-0.5429712533950806,-1,1],"type":"VEC4"},{"bufferView":1,"byteOffset":26824,"componentType":5126,"count":806,"max":[0.9131250381469727,0.6187500953674316],"min":[0.08687496185302734,0.34787803888320923],"type":"VEC2"},{"bufferView":0,"byteOffset":71424,"componentType":5125,"count":4032,"max":[805],"min":[0],"type":"SCALAR"},{"bufferView":2,"byteOffset":99816,"componentType":5126,"count":2158,"max":[833.719482421875,450.1559143066406,100.03883361816406],"min":[-833.719482421875,-450.1559143066406,-100.0388412475586],"type":"VEC3"},{"bufferView":2,"byteOffset":125712,"componentType":5126,"count":2158,"max":[0.9999994039535522,1,0.9999855160713196],"min":[-0.999999463558197,-0.9998619556427002,-1],"type":"VEC3"},{"bufferView":3,"byteOffset":66544,"componentType":5126,"count":2158,"max":[1,0.9990291595458984,0.9999584555625916,1],"min":[-1,-0.9990414977073669,-0.9999992847442627,-1],"type":"VEC4"},{"bufferView":1,"byteOffset":33272,"componentType":5126,"count":2158,"max":[0.5840908288955688,0.998123288154602],"min":[0.0016841237666085362,0.0016725679161027074],"type":"VEC2"},{"bufferView":0,"byteOffset":87552,"componentType":5125,"count":11904,"max":[2157],"min":[0],"type":"SCALAR"},{"bufferView":2,"byteOffset":151608,"componentType":5126,"count":2158,"max":[835.1214599609375,118.4285659790039,224.88983154296875],"min":[-835.1215209960938,-104.32711791992188,-231.58091735839844],"type":"VEC3"},{"bufferView":2,"byteOffset":177504,"componentType":5126,"count":2158,"max":[0.9999547600746155,0.9961947798728943,0.9973422288894653],"min":[-0.9999547600746155,-0.9997110962867737,-0.9984604120254517],"type":"VEC3"},{"bufferView":3,"byteOffset":101072,"componentType":5126,"count":2158,"max":[1,0.9998809099197388,0.9986870884895325,1],"min":[-1,-0.9971849322319031,-0.9981175661087036,-1],"type":"VEC4"},{"bufferView":1,"byteOffset":50536,"componentType":5126,"count":2158,"max":[0.9983023405075073,0.9801425933837891],"min":[0.0030547433998435736,0.0010114595061168075],"type":"VEC2"},{"bufferView":0,"byteOffset":135168,"componentType":5125,"count":11904,"max":[2157],"min":[0],"type":"SCALAR"},{"bufferView":2,"byteOffset":203400,"componentType":5126,"count":778,"max":[269.13360595703125,81.92626190185547,203.1707000732422],"min":[-268.933837890625,-86.30453491210938,-202.8974609375],"type":"VEC3"},{"bufferView":2,"byteOffset":212736,"componentType":5126,"count":778,"max":[0.999919593334198,0.9979516267776489,0.9994550943374634],"min":[-0.9990748167037964,-0.999272882938385,-0.9989155530929565],"type":"VEC3"},{"bufferView":3,"byteOffset":135600,"componentType":5126,"count":778,"max":[0.9997643232345581,0.999147355556488,0.9935242533683777,1],"min":[-0.8798308968544006,-0.9992453455924988,-0.9945611953735352,-1],"type":"VEC4"},{"bufferView":1,"byteOffset":67800,"componentType":5126,"count":778,"max":[0.991923451423645,0.38961556553840637],"min":[0.008477487601339817,0.010958882048726082],"type":"VEC2"},{"bufferView":0,"byteOffset":182784,"componentType":5125,"count":4176,"max":[777],"min":[0],"type":"SCALAR"},{"bufferView":2,"byteOffset":222072,"componentType":5126,"count":778,"max":[249.06692504882812,74.021484375,193.4838104248047],"min":[-247.30780029296875,-78.38480377197266,-195.0162353515625],"type":"VEC3"},{"bufferView":2,"byteOffset":231408,"componentType":5126,"count":778,"max":[0.9998542666435242,0.9998669028282166,0.9997832179069519],"min":[-0.99932861328125,-0.9993681907653809,-0.999946117401123],"type":"VEC3"},{"bufferView":3,"byteOffset":148048,"componentType":5126,"count":778,"max":[0.9999994039535522,0.9995687007904053,0.9985074996948242,1],"min":[-0.886283278465271,-0.9969208240509033,-0.9995239973068237,-1],"type":"VEC4"},{"bufferView":1,"byteOffset":74024,"componentType":5126,"count":778,"max":[0.991923451423645,0.38961556553840637],"min":[0.008477487601339817,0.010958882048726082],"type":"VEC2"},{"bufferView":0,"byteOffset":199488,"componentType":5125,"count":4176,"max":[777],"min":[0],"type":"SCALAR"},{"bufferView":2,"byteOffset":240744,"componentType":5126,"count":3244,"max":[1038,108.8868408203125,85.90715026855469],"min":[-1038,-108.68603515625,-85.97230529785156],"type":"VEC3"},{"bufferView":2,"byteOffset":279672,"componentType":5126,"count":3244,"max":[1,1,1],"min":[-1,-1,-1],"type":"VEC3"},{"bufferView":3,"byteOffset":160496,"componentType":5126,"count":3244,"max":[1,0.9595625996589661,0.9999985694885254,1],"min":[-1,-0.9595640897750854,-0.9999985694885254,-1],"type":"VEC4"},{"bufferView":1,"byteOffset":80248,"componentType":5126,"count":3244,"max":[0.9992694854736328,0.8557161092758179],"min":[0.0004607621522154659,0.0006116333534009755],"type":"VEC2"},{"bufferView":0,"byteOffset":216192,"componentType":5125,"count":18048,"max":[3243],"min":[0],"type":"SCALAR"},{"bufferView":2,"byteOffset":318600,"componentType":5126,"count":144,"max":[990,417.00640869140625,23.71356964111328],"min":[-990,-417.0063781738281,-23.71360969543457],"type":"VEC3"},{"bufferView":2,"byteOffset":320328,"componentType":5126,"count":144,"max":[0.9745514392852783,0.9745514392852783,-0.22416366636753082],"min":[-0.9745514392852783,-0.9745515584945679,-1],"type":"VEC3"},{"bufferView":3,"byteOffset":212400,"componentType":5126,"count":144,"max":[1,1,0.6151632070541382,1],"min":[-1,-1,-0.6151632070541382,-1],"type":"VEC4"},{"bufferView":1,"byteOffset":106200,"componentType":5126,"count":144,"max":[0.8333332538604736,0.8975780010223389],"min":[0.16666662693023682,0.2803974747657776],"type":"VEC2"},{"bufferView":0,"byteOffset":288384,"componentType":5125,"count":216,"max":[143],"min":[0],"type":"SCALAR"}],"asset":{"extras":{"author":"Sv (https://sketchfab.com/sourabh.vijeta)","license":"CC-BY-4.0 (http://creativecommons.org/licenses/by/4.0/)","source":"https://sketchfab.com/models/5dabbd940dd94bab986bdb4992372de7","title":"Sofa Set"},"generator":"Sketchfab-3.25.5","version":"2.0"},"bufferViews":[{"buffer":0,"byteLength":289248,"byteOffset":0,"name":"floatBufferViews","target":34963},{"buffer":0,"byteLength":107352,"byteOffset":289248,"byteStride":8,"name":"floatBufferViews","target":34962},{"buffer":0,"byteLength":322056,"byteOffset":396600,"byteStride":12,"name":"floatBufferViews","target":34962},{"buffer":0,"byteLength":214704,"byteOffset":718656,"byteStride":16,"name":"floatBufferViews","target":34962},{"buffer":0,"byteOffset":933360,"byteLength":268727},{"buffer":0,"byteOffset":1202088,"byteLength":173928},{"buffer":0,"byteOffset":1376016,"byteLength":128929}],"buffers":[{"byteLength":1504948,"uri":"data:application/octet-stream;base64,"}],"images":[{"bufferView":4,"mimeType":"image/jpeg"},{"bufferView":5,"mimeType":"image/jpeg"},{"bufferView":6,"mimeType":"image/jpeg"}],"materials":[{"doubleSided":true,"emissiveFactor":[0,0,0],"name":"Sofa","pbrMetallicRoughness":{"baseColorFactor":[1,1,1,1],"baseColorTexture":{"index":2,"texCoord":0},"metallicFactor":0,"roughnessFactor":0.6},"alphaMode":"OPAQUE"},{"doubleSided":true,"emissiveFactor":[0,0,0],"name":"Pillow","pbrMetallicRoughness":{"baseColorFactor":[1,1,1,1],"baseColorTexture":{"index":1,"texCoord":0},"metallicFactor":0,"roughnessFactor":0.6},"alphaMode":"OPAQUE"},{"doubleSided":true,"emissiveFactor":[0,0,0],"name":"Sides","pbrMetallicRoughness":{"baseColorFactor":[1,1,1,1],"baseColorTexture":{"index":0,"texCoord":0},"metallicFactor":0,"roughnessFactor":0.9207483815999999},"alphaMode":"OPAQUE"}],"meshes":[{"name":"Sidewalls_Sofa_0","primitives":[{"attributes":{"NORMAL":1,"POSITION":0,"TANGENT":2,"TEXCOORD_0":3},"indices":4,"material":0,"mode":4}]},{"name":"Frame_bottom_Sofa_0","primitives":[{"attributes":{"NORMAL":6,"POSITION":5,"TANGENT":7,"TEXCOORD_0":8},"indices":9,"material":0,"mode":4}]},{"name":"Back cover_Sofa_0","primitives":[{"attributes":{"NORMAL":11,"POSITION":10,"TANGENT":12,"TEXCOORD_0":13},"indices":14,"material":0,"mode":4}]},{"name":"Pillow Big_Bottom_Sofa_0","primitives":[{"attributes":{"NORMAL":16,"POSITION":15,"TANGENT":17,"TEXCOORD_0":18},"indices":19,"material":0,"mode":4}]},{"name":"Pillow Big_Back_Sofa_0","primitives":[{"attributes":{"NORMAL":21,"POSITION":20,"TANGENT":22,"TEXCOORD_0":23},"indices":24,"material":0,"mode":4}]},{"name":"pillow_01_Pillow_0","primitives":[{"attributes":{"NORMAL":26,"POSITION":25,"TANGENT":27,"TEXCOORD_0":28},"indices":29,"material":1,"mode":4}]},{"name":"pillow_02_Pillow_0","primitives":[{"attributes":{"NORMAL":31,"POSITION":30,"TANGENT":32,"TEXCOORD_0":33},"indices":34,"material":1,"mode":4}]},{"name":"Onlay_wood_Sides_0","primitives":[{"attributes":{"NORMAL":36,"POSITION":35,"TANGENT":37,"TEXCOORD_0":38},"indices":39,"material":2,"mode":4}]},{"name":"Feet_Sides_0","primitives":[{"attributes":{"NORMAL":41,"POSITION":40,"TANGENT":42,"TEXCOORD_0":43},"indices":44,"material":2,"mode":4}]}],"nodes":[{"children":[1],"name":"RootNode (gltf orientation matrix)","rotation":[-0.7071067811865475,0,0,0.7071067811865476],"translation":[0,0,0],"scale":[1,1,1]},{"children":[2],"name":"RootNode (model correction matrix)"},{"children":[3],"matrix":[1,0,0,0,0,0,1,0,0,-1,0,0,0,0,0,1],"name":"8b7378bce94b47498c02aae3c60b467e.fbx"},{"children":[4,6,8,10,12,14,16,18,20],"name":"RootNode"},{"children":[5],"matrix":[0.10000000149011612,0,0,0,0,2.2204460823375376e-17,-0.10000000149011612,0,0,0.10000000149011612,2.2204460823375376e-17,0,0,34.735931396484375,-2.65020751953125,1],"name":"Sidewalls"},{"mesh":0,"name":"Sidewalls_Sofa_0"},{"children":[7],"matrix":[0.10000000149011612,0,0,0,0,2.2204460823375376e-17,-0.10000000149011612,0,0,0.10000000149011612,2.2204460823375376e-17,0,0,15,-2.894744873046875,1],"name":"Frame_bottom"},{"mesh":1,"name":"Frame_bottom_Sofa_0"},{"children":[9],"matrix":[0.10000000149011612,0,0,0,0,2.2204460823375376e-17,-0.10000000149011612,0,0,0.10000000149011612,2.2204460823375376e-17,0,0,49.00000762939453,-44.894744873046875,1],"name":"Back cover"},{"mesh":2,"name":"Back cover_Sofa_0"},{"children":[11],"matrix":[0.10000000149011612,0,0,0,0,2.2204460823375376e-17,-0.10000000149011612,0,0,0.10000000149011612,2.2204460823375376e-17,0,0,35.003883361816406,4.095095634460449,1],"name":"Pillow Big_Bottom"},{"mesh":3,"name":"Pillow Big_Bottom_Sofa_0"},{"children":[13],"matrix":[0.10000000149011459,5.293955999225468e-24,-1.7484555575235077e-8,0,-1.7484555575235077e-8,3.3306691235063064e-17,-0.10000000149011459,0,1.323488999806367e-24,0.10000000149011612,3.3306691235063064e-17,0,0.00000610351571594947,65.3003158569336,-30.67415428161621,1],"name":"Pillow Big_Back"},{"mesh":4,"name":"Pillow Big_Back_Sofa_0"},{"children":[15],"matrix":[0.07987692338287111,-2.626610758083654e-9,0.03724721363816764,0,0.048520586341864756,-0.05353654053309561,-0.10405275777110262,0,0.017860612953776826,0.09063077061190661,-0.03830220934878967,0,63.66326904296875,60.75653076171875,-7.902336120605469,1],"name":"pillow_01"},{"mesh":5,"name":"pillow_01_Pillow_0"},{"children":[17],"matrix":[0.023086280194300784,1.4854545422583917e-17,-0.0861592015797753,0,-0.10023294361998729,-0.07265965792124979,-0.02685732665440302,0,-0.055403220411838344,0.0819152136732293,-0.01484524283700587,0,-72.32066345214844,60.006919860839844,0.24918822944164276,1],"name":"pillow_02"},{"mesh":6,"name":"pillow_02_Pillow_0"},{"children":[19],"matrix":[0.10000000149011612,0,0,0,0,-1.7484555530826427e-8,-0.10000000149011459,0,0,0.10000000149011459,-1.7484555530826427e-8,0,0,56.7703742980957,26.782445907592773,1],"name":"Onlay_wood"},{"mesh":7,"name":"Onlay_wood_Sides_0"},{"children":[21],"matrix":[0.10000000149011612,0,0,0,0,-1.7484555530826427e-8,-0.10000000149011459,0,0,0.10000000149011459,-1.7484555530826427e-8,0,0,2.3713440895080566,-2.6628692150115967,1],"name":"Feet"},{"mesh":8,"name":"Feet_Sides_0"}],"samplers":[{"magFilter":9729,"minFilter":9987,"wrapS":10497,"wrapT":10497}],"scene":0,"scenes":[{"name":"OSG_Scene","nodes":[0]}],"textures":[{"sampler":0,"source":0},{"sampler":0,"source":1},{"sampler":0,"source":2}]}
